# xmcd
#
# Track frame offsets: 
#        150
#        21942
#        49976
#        67575
#        89715
#        112301
#        134832
#        156485
#        181732
#        205405
#
# Disc length: 2959 seconds
#
# Revision: 0
# Processed by: cddbd v1.5.2PL0 Copyright (c) Steve Scherf et al.
# Submitted via: ExactAudioCopy v1.0b3
#
DISCID=980b8d0a
DTITLE=Phuong Mai, Tuan Vu - 7000 Dem Gop Lai
DYEAR=1997
DGENRE=
TTITLE0=Phuong Mai - Thanh pho sau lung
TTITLE1=Phuong Mai - Bien man
TTITLE2=Con duong xua em di
TTITLE3=Phuong Mai - Bay ngan dem gop lai
TTITLE4=Phuong Mai - Nua dem ngoai pho
TTITLE5=Phuong Mai - Nhat ky doi toi
TTITLE6=Phuong Mai - Gap nhau lam ngo
TTITLE7=Neu chung minh cach tro
TTITLE8=Phuong Mai - Nhung ngay xua than ai
TTITLE9=Trom nhin nhau
EXTD=
EXTT0=
EXTT1=
EXTT2=
EXTT3=
EXTT4=
EXTT5=
EXTT6=
EXTT7=
EXTT8=
EXTT9=
PLAYORDER=
